<?xml version="1.0" standalone="no"?>
<!DOCTYPE svg PUBLIC "-//W3C//DTD SVG 20010904//EN"
 "http://www.w3.org/TR/2001/REC-SVG-20010904/DTD/svg10.dtd">
<svg version="1.0" xmlns="http://www.w3.org/2000/svg"
 width="500.000000pt" height="500.000000pt" viewBox="0 0 500.000000 500.000000"
 preserveAspectRatio="xMidYMid meet">
<metadata>
Created by potrace 1.14, written by Peter Selinger 2001-2017
</metadata>
<g transform="translate(0.000000,500.000000) scale(0.100000,-0.100000)"
fill="#000000" stroke="none">
<path d="M1852 4080 c-250 -59 -419 -245 -482 -532 -21 -98 -34 -282 -19 -272
5 3 9 14 9 26 0 34 56 189 95 263 90 169 211 285 387 369 62 30 160 66 183 67
2 0 19 5 37 10 18 5 53 12 78 15 25 3 59 7 75 9 54 7 172 8 183 1 6 -3 13 -2
16 3 3 4 -22 14 -57 21 -34 7 -71 14 -82 16 -128 27 -317 28 -423 4z"/>
<path d="M1264 3958 c-148 -152 -231 -263 -302 -403 -49 -99 -50 -100 -74
-185 -30 -109 -34 -139 -32 -241 2 -116 5 -137 35 -235 61 -199 225 -423 432
-591 39 -32 74 -61 77 -64 12 -15 249 -166 285 -182 l40 -17 -30 26 c-16 15
-59 52 -94 83 -124 110 -278 304 -358 451 -46 83 -99 224 -124 325 -17 72 -22
122 -23 250 -1 88 2 186 6 218 23 174 117 426 221 590 46 71 49 77 44 77 -2 0
-48 -46 -103 -102z"/>
<path d="M2155 3748 c-87 -10 -122 -21 -206 -65 -238 -123 -395 -396 -397
-690 -2 -283 137 -546 403 -762 112 -91 292 -189 406 -222 24 -7 49 -14 54
-15 38 -12 177 -43 210 -48 126 -18 347 -23 460 -12 95 10 150 17 165 21 8 2
35 7 60 10 83 11 325 73 456 116 71 24 131 44 134 44 3 1 14 5 25 10 90 37
178 66 340 111 75 21 273 62 335 69 30 3 69 9 85 11 17 3 92 6 168 6 l138 1
-41 18 c-100 45 -231 85 -340 103 -140 25 -414 25 -610 1 -187 -22 -203 -25
-225 -29 -11 -3 -42 -8 -70 -11 -27 -4 -57 -8 -65 -10 -8 -2 -37 -7 -65 -10
-27 -4 -57 -8 -65 -10 -8 -3 -38 -7 -66 -10 -28 -3 -61 -8 -74 -10 -14 -3 -54
-7 -90 -11 -36 -3 -76 -7 -90 -10 -53 -10 -298 -12 -355 -3 -33 5 -71 11 -85
13 -137 22 -349 106 -468 188 -70 48 -160 136 -201 198 -68 102 -94 185 -94
300 1 188 84 359 206 422 48 24 68 29 132 30 172 3 344 -157 422 -394 l28 -83
7 45 c21 137 -4 299 -64 413 -97 182 -339 300 -563 275z"/>
<path d="M629 3135 c-4 -5 -10 -28 -14 -50 -5 -22 -9 -44 -11 -50 -31 -129
-39 -199 -38 -365 1 -92 7 -177 18 -232 109 -564 570 -986 1261 -1153 109 -26
117 -28 275 -51 37 -5 256 -17 320 -17 64 -1 268 11 320 18 473 61 813 180
1279 444 79 44 149 81 156 81 8 0 15 4 17 9 3 8 191 102 328 163 77 35 200 77
300 103 92 24 89 30 -20 41 -110 11 -317 5 -396 -10 -12 -2 -37 -7 -55 -10
-143 -23 -325 -72 -634 -173 -93 -30 -177 -57 -185 -59 -8 -2 -80 -22 -158
-44 -79 -21 -161 -42 -181 -45 -35 -5 -54 -8 -111 -20 -14 -2 -45 -7 -70 -10
-25 -4 -56 -8 -70 -10 -330 -50 -703 -50 -990 0 -118 21 -120 21 -207 45 -417
117 -722 356 -921 722 -78 144 -168 429 -199 628 -4 30 -11 51 -14 45z"/>
</g>
</svg>
